<svg xmlns="http://www.w3.org/2000/svg" xmlns:xlink="http://www.w3.org/1999/xlink" width="500" viewBox="0 0 375 374.999991" height="500" preserveAspectRatio="xMidYMid meet"><defs><clipPath id="be43061608"><path d="M 0 5.597656 L 375 5.597656 L 375 369.347656 L 0 369.347656 Z M 0 5.597656 " clip-rule="nonzero"></path></clipPath></defs><rect x="-37.5" width="450" fill="#ffffff" y="-37.499999" height="449.999989" fill-opacity="1"></rect><rect x="-37.5" width="450" fill="#000000" y="-37.499999" height="449.999989" fill-opacity="1"></rect><g clip-path="url(#be43061608)"><path fill="#000000" d="M -0.167969 5.429688 C 124.832031 5.429688 249.828125 5.429688 374.828125 5.429688 C 374.828125 126.679688 374.828125 247.929688 374.828125 369.179688 C 249.828125 369.179688 124.832031 369.179688 -0.167969 369.179688 C -0.167969 247.929688 -0.167969 126.679688 -0.167969 5.429688 Z M -0.167969 5.429688 " fill-opacity="1" fill-rule="evenodd"></path></g><path fill="#f3b21b" d="M 179.015625 50.21875 C 208.023438 49.453125 235.398438 55.617188 261.140625 68.710938 C 275.421875 76.429688 287.128906 87.007812 296.265625 100.4375 C 304.234375 113.203125 307.460938 127.113281 305.9375 142.175781 C 299.339844 141.035156 292.777344 139.675781 286.253906 138.105469 C 286.53125 141.335938 285.289062 143.824219 282.523438 145.570312 C 281.621094 144.671875 280.886719 143.652344 280.316406 142.515625 C 280 137.21875 277.226562 134.902344 272 135.558594 C 271.28125 135.9375 270.660156 136.449219 270.136719 137.085938 C 270.160156 143.195312 270.273438 149.304688 270.472656 155.410156 C 269.828125 159.035156 267.851562 160.222656 264.535156 158.972656 C 263.90625 158.441406 263.394531 157.820312 263.007812 157.105469 C 262.621094 152.023438 262.394531 146.933594 262.328125 141.835938 C 261.824219 138.109375 259.730469 136.582031 256.050781 137.253906 C 253.90625 139.375 251.757812 141.523438 249.601562 143.703125 C 247.289062 145.019531 245.195312 144.734375 243.324219 142.855469 C 241.898438 139.488281 239.917969 136.492188 237.386719 133.863281 C 235.3125 132.976562 233.445312 133.257812 231.785156 134.710938 C 228.957031 138.800781 227.9375 143.324219 228.734375 148.28125 C 229.246094 150.671875 229.8125 153.046875 230.429688 155.410156 C 231.132812 158.421875 230.511719 161.078125 228.5625 163.382812 C 224.480469 165.652344 221.597656 164.578125 219.910156 160.160156 C 219.730469 158.222656 219.84375 156.300781 220.25 154.390625 C 221.636719 148.917969 222.710938 143.378906 223.472656 137.765625 C 222.933594 134.253906 221.972656 130.859375 220.585938 127.585938 C 219.972656 126.941406 219.238281 126.773438 218.382812 127.074219 C 217.203125 128.195312 216.183594 129.4375 215.328125 130.808594 C 210.554688 133.046875 208.351562 136.835938 208.710938 142.175781 C 207.800781 143.363281 206.839844 144.496094 205.824219 145.570312 C 203.378906 143.554688 202.417969 140.953125 202.941406 137.765625 C 201.972656 134.140625 199.652344 132.839844 195.984375 133.863281 C 193.453125 134.960938 192.324219 136.886719 192.589844 139.628906 C 192.9375 143.871094 193.277344 148.113281 193.609375 152.355469 C 194.226562 156.21875 192.699219 158.707031 189.027344 159.820312 C 188.355469 159.652344 187.789062 159.3125 187.332031 158.800781 C 186.621094 157.980469 186.054688 157.074219 185.632812 156.085938 C 185.519531 151.675781 185.40625 147.265625 185.292969 142.855469 C 184.019531 136.929688 181.023438 135.855469 176.300781 139.628906 C 170.984375 146.652344 166.742188 146.03125 163.574219 137.765625 C 159.761719 132.226562 156.140625 132.339844 152.714844 138.105469 C 151.140625 142.960938 151.140625 147.824219 152.714844 152.695312 C 153.195312 155.28125 153.421875 157.882812 153.394531 160.5 C 150.910156 165.136719 147.742188 165.699219 143.890625 162.195312 C 142.773438 160.316406 142.433594 158.277344 142.875 156.085938 C 144.105469 151.835938 145.125 147.535156 145.929688 143.195312 C 146.183594 139.789062 146.070312 136.394531 145.589844 133.015625 C 145.296875 131.105469 144.222656 130.484375 142.363281 131.148438 C 139.453125 134.105469 137.925781 137.667969 137.785156 141.835938 C 136.777344 142.898438 135.703125 143.914062 134.558594 144.890625 C 132.410156 142.769531 131.558594 140.167969 132.015625 137.085938 C 131.035156 133.457031 128.714844 132.15625 125.058594 133.183594 C 122.238281 134.335938 121.105469 136.429688 121.664062 139.460938 C 121.742188 142.3125 122.023438 145.140625 122.511719 147.945312 C 122.738281 150.207031 122.738281 152.46875 122.511719 154.730469 C 120.5625 160.164062 117.960938 160.503906 114.707031 155.75 C 114.59375 150.882812 114.480469 146.019531 114.367188 141.15625 C 113.640625 137.492188 111.4375 135.964844 107.75 136.578125 C 105.714844 138.726562 103.675781 140.875 101.640625 143.023438 C 98.523438 144.605469 96.089844 143.871094 94.34375 140.816406 C 93.792969 139.390625 93.117188 138.03125 92.308594 136.746094 C 90.457031 135.757812 88.476562 135.476562 86.371094 135.898438 C 84.226562 136.230469 82.472656 137.191406 81.109375 138.78125 C 80.753906 140.054688 80.585938 141.355469 80.601562 142.683594 C 81.085938 147.054688 81.707031 151.410156 82.46875 155.75 C 82.984375 161.792969 80.328125 164.226562 74.492188 163.042969 C 72.09375 161.167969 71.246094 158.738281 71.945312 155.75 C 73.59375 150.0625 74.78125 144.292969 75.511719 138.441406 C 70.761719 139.421875 66.011719 140.328125 61.257812 141.15625 C 58.070312 123.542969 61.863281 107.597656 72.625 93.3125 C 81.507812 82.734375 92.082031 74.308594 104.355469 68.035156 C 119.050781 60.496094 134.550781 55.40625 150.847656 52.765625 C 160.273438 51.757812 169.664062 50.910156 179.015625 50.21875 Z M 179.015625 50.21875 " fill-opacity="1" fill-rule="evenodd"></path><path fill="#070605" d="M 188.179688 57.683594 C 193.269531 57.511719 196.832031 59.773438 198.867188 64.472656 C 199.207031 66.074219 199.035156 67.601562 198.359375 69.050781 C 196.410156 70.167969 194.488281 70.054688 192.589844 68.710938 C 188.917969 66.515625 187.050781 63.292969 186.992188 59.042969 C 187.457031 58.632812 187.855469 58.179688 188.179688 57.683594 Z M 188.179688 57.683594 " fill-opacity="1" fill-rule="evenodd"></path><path fill="#070606" d="M 136.59375 69.222656 C 142.203125 68.535156 143.617188 70.574219 140.835938 75.328125 C 137.871094 79.03125 134.078125 80.445312 129.46875 79.570312 C 128.488281 78.585938 128.203125 77.394531 128.621094 76.007812 C 130.445312 72.75 133.105469 70.488281 136.59375 69.222656 Z M 136.59375 69.222656 " fill-opacity="1" fill-rule="evenodd"></path><path fill="#080706" d="M 255.710938 78.042969 C 260.359375 78.359375 264.035156 80.394531 266.742188 84.152344 C 267.785156 87.191406 266.652344 88.773438 263.347656 88.902344 C 259.402344 88.402344 256.238281 86.59375 253.84375 83.472656 C 253.328125 82.160156 253.214844 80.800781 253.507812 79.402344 C 254.242188 78.914062 254.980469 78.460938 255.710938 78.042969 Z M 255.710938 78.042969 " fill-opacity="1" fill-rule="evenodd"></path><path fill="#070606" d="M 216.007812 80.417969 C 220.929688 79.511719 222.570312 81.320312 220.925781 85.847656 C 218.316406 90.125 214.523438 92.101562 209.558594 91.785156 C 208.128906 90.363281 207.84375 88.722656 208.710938 86.867188 C 210.570312 84.046875 213.003906 81.898438 216.007812 80.417969 Z M 216.007812 80.417969 " fill-opacity="1" fill-rule="evenodd"></path><path fill="#070606" d="M 88.746094 89.921875 C 92.453125 89.617188 93.980469 91.3125 93.328125 95.011719 C 92.046875 98.4375 89.726562 100.871094 86.371094 102.304688 C 81.917969 102.824219 80.503906 100.957031 82.128906 96.707031 C 83.492188 93.589844 85.699219 91.328125 88.746094 89.921875 Z M 88.746094 89.921875 " fill-opacity="1" fill-rule="evenodd"></path><path fill="#090807" d="M 159.332031 95.347656 C 163.492188 95.042969 167.167969 96.175781 170.363281 98.742188 C 171.324219 100.589844 170.816406 101.890625 168.835938 102.644531 C 167.074219 103.128906 165.320312 103.636719 163.574219 104.171875 C 160.816406 103.480469 158.160156 102.515625 155.601562 101.289062 C 153.550781 99.125 153.890625 97.429688 156.617188 96.199219 C 157.59375 96.011719 158.5 95.730469 159.332031 95.347656 Z M 159.332031 95.347656 " fill-opacity="1" fill-rule="evenodd"></path><path fill="#0a0908" d="M 124.039062 99.082031 C 126.722656 98.503906 128.644531 99.410156 129.808594 101.796875 C 129.527344 102.585938 129.242188 103.378906 128.960938 104.171875 C 125.890625 106.300781 122.550781 107.941406 118.949219 109.09375 C 115 108.765625 114.039062 106.898438 116.0625 103.492188 C 118.332031 101.257812 120.988281 99.789062 124.039062 99.082031 Z M 124.039062 99.082031 " fill-opacity="1" fill-rule="evenodd"></path><path fill="#080706" d="M 276.414062 99.761719 C 279.613281 101.304688 282.78125 102.945312 285.914062 104.679688 C 287.390625 105.65625 287.613281 106.84375 286.59375 108.242188 C 284.121094 110.027344 281.40625 110.425781 278.449219 109.429688 C 276.808594 108.886719 275.226562 108.207031 273.699219 107.394531 C 272.082031 106.257812 271.347656 104.734375 271.492188 102.8125 C 273.070312 101.660156 274.710938 100.640625 276.414062 99.761719 Z M 276.414062 99.761719 " fill-opacity="1" fill-rule="evenodd"></path><path fill="#fdfdfd" d="M 62.613281 170.339844 C 78.226562 170.28125 93.835938 170.339844 109.445312 170.507812 C 125.339844 171.359375 134.785156 179.558594 137.785156 195.109375 C 139.003906 202.597656 138.890625 210.0625 137.445312 217.503906 C 133.492188 231.746094 124.160156 239.832031 109.445312 241.765625 C 93.835938 241.933594 78.226562 241.992188 62.613281 241.933594 C 62.613281 218.070312 62.613281 194.203125 62.613281 170.339844 Z M 62.613281 170.339844 " fill-opacity="1" fill-rule="evenodd"></path><path fill="#fdfdfd" d="M 143.042969 170 C 158.992188 169.941406 174.945312 170 190.894531 170.167969 C 204.367188 171.539062 211.886719 178.945312 213.460938 192.394531 C 214.480469 200.898438 212.671875 208.703125 208.03125 215.808594 C 206.253906 217.582031 204.503906 219.335938 202.769531 221.066406 C 206.683594 227.933594 210.644531 234.773438 214.648438 241.597656 C 206.960938 241.992188 199.265625 242.046875 191.574219 241.765625 C 188.113281 236.324219 184.71875 230.839844 181.390625 225.308594 C 175.398438 224.96875 169.40625 224.855469 163.40625 224.96875 C 163.40625 230.625 163.40625 236.28125 163.40625 241.933594 C 156.617188 241.933594 149.832031 241.933594 143.042969 241.933594 C 143.042969 217.957031 143.042969 193.976562 143.042969 170 Z M 143.042969 170 " fill-opacity="1" fill-rule="evenodd"></path><path fill="#fcfcfc" d="M 218.042969 170 C 224.800781 169.890625 231.53125 170.003906 238.234375 170.339844 C 238.40625 194.203125 238.460938 218.070312 238.40625 241.933594 C 231.617188 241.933594 224.828125 241.933594 218.042969 241.933594 C 218.042969 217.957031 218.042969 193.976562 218.042969 170 Z M 218.042969 170 " fill-opacity="1" fill-rule="evenodd"></path><path fill="#fdfdfd" d="M 265.894531 227.683594 C 265.179688 227.355469 264.386719 227.242188 263.515625 227.34375 C 263.515625 232.207031 263.515625 237.070312 263.515625 241.933594 C 256.84375 241.933594 250.167969 241.933594 243.496094 241.933594 C 243.496094 217.957031 243.496094 193.976562 243.496094 170 C 258.878906 169.941406 274.265625 170 289.648438 170.167969 C 301.835938 171.613281 309.132812 178.34375 311.535156 190.359375 C 313.273438 200.023438 311.6875 209.070312 306.785156 217.503906 C 303.21875 222.085938 298.636719 225.195312 293.042969 226.835938 C 291.828125 228.128906 290.699219 229.488281 289.648438 230.90625 C 287.058594 231.011719 285.925781 232.367188 286.253906 234.980469 C 286.46875 235.234375 286.636719 235.515625 286.761719 235.828125 C 286.988281 237.636719 286.988281 239.445312 286.761719 241.257812 C 285.691406 242.242188 284.789062 242.125 284.046875 240.917969 C 283.863281 238.296875 284.03125 235.695312 284.558594 233.113281 C 283.785156 230.183594 281.976562 229.335938 279.128906 230.566406 C 278.617188 231.074219 278.335938 231.695312 278.28125 232.433594 C 277.488281 233.339844 276.695312 233.339844 275.902344 232.433594 C 275.753906 230.964844 275.132812 229.777344 274.039062 228.871094 C 272.25 228.378906 271.0625 229 270.472656 230.738281 C 269.683594 231.644531 268.890625 231.644531 268.097656 230.738281 C 267.542969 229.5625 266.804688 228.546875 265.894531 227.683594 Z M 265.894531 227.683594 " fill-opacity="1" fill-rule="evenodd"></path><path fill="#010101" d="M 82.976562 190.359375 C 84.113281 190.304688 85.246094 190.359375 86.371094 190.527344 C 87.660156 192.550781 88.054688 194.757812 87.558594 197.144531 C 87.429688 198.597656 87.148438 200.011719 86.710938 201.386719 C 86.875 203.488281 87.894531 204.394531 89.761719 204.101562 C 90.289062 203.6875 90.683594 203.179688 90.953125 202.574219 C 90.679688 199.753906 90.457031 196.925781 90.273438 194.089844 C 91.527344 192.449219 92.882812 192.335938 94.34375 193.75 C 95.035156 195.25 95.433594 196.835938 95.53125 198.503906 C 94.988281 202.445312 94.820312 206.40625 95.023438 210.378906 C 96.492188 212.640625 97.964844 212.640625 99.433594 210.378906 C 99.628906 206.925781 99.574219 203.476562 99.265625 200.03125 C 98.671875 196.667969 100.027344 195.195312 103.339844 195.617188 C 104.210938 196.675781 105 197.808594 105.714844 199.011719 C 106.164062 199.238281 106.617188 199.238281 107.070312 199.011719 C 108.03125 197.601562 108.769531 196.078125 109.277344 194.429688 C 109.734375 193.523438 110.414062 192.84375 111.3125 192.394531 C 115.734375 195.796875 117.714844 200.320312 117.25 205.96875 C 117.453125 211.1875 115.757812 215.65625 112.160156 219.371094 C 110.019531 220.875 107.644531 221.78125 105.035156 222.085938 C 97.683594 222.253906 90.328125 222.3125 82.976562 222.253906 C 82.976562 211.621094 82.976562 200.992188 82.976562 190.359375 Z M 82.976562 190.359375 " fill-opacity="1" fill-rule="evenodd"></path><path fill="#010101" d="M 263.855469 191.375 C 271.777344 191.320312 279.695312 191.375 287.613281 191.546875 C 291.328125 192.351562 293.136719 194.671875 293.042969 198.503906 C 293.1875 202.125 291.601562 204.558594 288.289062 205.796875 C 280.148438 205.96875 272.003906 206.023438 263.855469 205.96875 C 263.855469 201.105469 263.855469 196.238281 263.855469 191.375 Z M 263.855469 191.375 " fill-opacity="1" fill-rule="evenodd"></path><path fill="#050505" d="M 165.78125 191.714844 C 166.355469 191.660156 166.921875 191.71875 167.476562 191.886719 C 168.234375 192.753906 168.855469 193.71875 169.34375 194.769531 C 169.957031 195.414062 170.691406 195.582031 171.550781 195.277344 C 172.230469 194.375 172.90625 193.46875 173.585938 192.5625 C 175.007812 192.453125 176.367188 192.734375 177.660156 193.414062 C 178.976562 193.296875 180.109375 192.789062 181.050781 191.886719 C 182.671875 191.425781 183.859375 191.933594 184.617188 193.414062 C 184.726562 195.222656 184.839844 197.03125 184.953125 198.839844 C 185.640625 199.347656 186.207031 199.234375 186.652344 198.503906 C 186.765625 196.804688 186.878906 195.109375 186.992188 193.414062 C 188.097656 192.417969 189.398438 192.136719 190.894531 192.5625 C 193.3125 195.304688 193.59375 198.304688 191.742188 201.554688 C 190.464844 202.789062 188.9375 203.523438 187.160156 203.761719 C 179.242188 203.929688 171.324219 203.988281 163.40625 203.929688 C 163.292969 200.191406 163.40625 196.460938 163.746094 192.734375 C 164.519531 192.519531 165.195312 192.179688 165.78125 191.714844 Z M 165.78125 191.714844 " fill-opacity="1" fill-rule="evenodd"></path><path fill="#929292" d="M 265.894531 227.683594 C 265.214844 227.683594 264.535156 227.683594 263.855469 227.683594 C 263.96875 232.496094 263.855469 237.246094 263.515625 241.933594 C 263.515625 237.070312 263.515625 232.207031 263.515625 227.34375 C 264.386719 227.242188 265.179688 227.355469 265.894531 227.683594 Z M 265.894531 227.683594 " fill-opacity="1" fill-rule="evenodd"></path><path fill="#f3b21c" d="M 69.742188 251.097656 C 146.550781 251.117188 223.359375 251.171875 300.167969 251.265625 C 304.5 251.417969 307.382812 253.511719 308.820312 257.542969 C 309.191406 260.46875 309.359375 263.410156 309.332031 266.367188 C 309.203125 272.25 309.03125 278.128906 308.820312 284.011719 C 305.933594 303.300781 294.902344 314.667969 275.734375 318.113281 C 215.554688 318.339844 155.375 318.339844 95.191406 318.113281 C 78.726562 314.878906 68.261719 305.207031 63.800781 289.101562 C 62.980469 278.484375 62.753906 267.851562 63.125 257.203125 C 64.328125 254.019531 66.53125 251.984375 69.742188 251.097656 Z M 69.742188 251.097656 " fill-opacity="1" fill-rule="evenodd"></path><path fill="#030202" d="M 73.132812 281.636719 C 73.132812 274.960938 73.132812 268.289062 73.132812 261.617188 C 75.851562 261.617188 78.566406 261.617188 81.28125 261.617188 C 82.289062 262.71875 83.136719 263.964844 83.824219 265.347656 C 84.730469 267.835938 85.632812 270.324219 86.539062 272.8125 C 86.820312 273.097656 87.105469 273.378906 87.386719 273.660156 C 88.984375 274.160156 90.511719 274.78125 91.96875 275.527344 C 92.042969 280.296875 91.757812 285.046875 91.121094 289.777344 C 91.179688 291.597656 91.347656 293.410156 91.628906 295.207031 C 92.929688 298.691406 95.25 299.542969 98.585938 297.753906 C 99.59375 296.777344 100.214844 295.589844 100.453125 294.191406 C 100.589844 292.035156 100.476562 289.882812 100.113281 287.742188 C 99.105469 284.195312 98.765625 280.574219 99.097656 276.886719 C 99.34375 276.054688 99.679688 275.261719 100.113281 274.511719 C 102.222656 272.855469 103.46875 270.707031 103.847656 268.0625 C 105.824219 265.207031 108.089844 264.980469 110.632812 267.382812 C 110.40625 270.679688 109.953125 273.960938 109.277344 277.222656 C 108.167969 280.683594 109.355469 282.71875 112.839844 283.332031 C 114.523438 283.289062 115.714844 282.496094 116.402344 280.957031 C 116.609375 277.957031 116.382812 275.015625 115.726562 272.132812 C 117.328125 270.195312 118.796875 268.15625 120.136719 266.027344 C 121.40625 264.75 122.933594 264.355469 124.71875 264.839844 C 126.007812 265.9375 127.476562 266.671875 129.128906 267.042969 C 129.90625 267.003906 130.585938 266.722656 131.164062 266.195312 C 132.28125 264.515625 133.523438 262.933594 134.898438 261.445312 C 145.644531 261.21875 156.390625 261.21875 167.136719 261.445312 C 168.699219 264.113281 170.507812 266.601562 172.566406 268.910156 C 174.945312 269.558594 177.320312 270.238281 179.695312 270.945312 C 181.957031 272.191406 182.976562 274.113281 182.75 276.714844 C 182.539062 282.453125 182.03125 288.164062 181.222656 293.851562 C 180.417969 297.367188 181.152344 300.480469 183.425781 303.183594 C 187.527344 304.777344 189.847656 303.363281 190.382812 298.941406 C 190.542969 295.878906 190.429688 292.828125 190.046875 289.777344 C 189.300781 285.683594 188.789062 281.554688 188.519531 277.394531 C 189.214844 269.238281 193.628906 265.960938 201.753906 267.554688 C 204.476562 267.582031 206.457031 268.769531 207.691406 271.117188 C 208.144531 272.472656 208.597656 273.832031 209.050781 275.1875 C 210.855469 276.871094 212.78125 276.984375 214.820312 275.527344 C 216.027344 272.433594 217.042969 269.265625 217.871094 266.027344 C 220.707031 262.300781 224.269531 261.453125 228.5625 263.480469 C 230.425781 265.105469 231.839844 267.085938 232.804688 269.421875 C 234.449219 271.796875 236.316406 272.023438 238.40625 270.097656 C 239.863281 267.691406 241.445312 265.371094 243.15625 263.144531 C 247.308594 260.589844 250.757812 261.324219 253.507812 265.347656 C 255.65625 270.890625 257.804688 276.433594 259.953125 281.976562 C 262.195312 283.917969 264.230469 283.691406 266.0625 281.296875 C 267.417969 278.140625 268.773438 274.972656 270.136719 271.796875 C 272.128906 269.585938 274.445312 269.191406 277.089844 270.609375 C 279.339844 272.289062 281.488281 274.101562 283.539062 276.035156 C 286.828125 277.761719 289.992188 277.535156 293.042969 275.359375 C 294.664062 273.5625 296.585938 272.261719 298.8125 271.457031 C 298.867188 276.546875 298.8125 281.636719 298.640625 286.726562 C 294.773438 299.4375 286.230469 306.617188 273.019531 308.273438 C 213.960938 308.609375 154.914062 308.496094 95.871094 307.933594 C 86.113281 305.871094 79.15625 300.273438 75 291.136719 C 73.621094 288.113281 73 284.945312 73.132812 281.636719 Z M 73.132812 281.636719 " fill-opacity="1" fill-rule="evenodd"></path><path fill="#96855c" d="M 81.28125 261.617188 C 78.566406 261.617188 75.851562 261.617188 73.132812 261.617188 C 73.132812 268.289062 73.132812 274.960938 73.132812 281.636719 C 72.796875 274.910156 72.683594 268.121094 72.796875 261.277344 C 75.6875 261.164062 78.511719 261.277344 81.28125 261.617188 Z M 81.28125 261.617188 " fill-opacity="1" fill-rule="evenodd"></path></svg>